<?xml version="1.0" standalone="yes"?>
<svg xmlns="http://www.w3.org/2000/svg" width="612" height="448">
<path style="fill:#fcfcfb; stroke:none;" d="M0 0L0 448L612 448L612 0L0 0z"/>
<path style="fill:#9a9a99; stroke:none;" d="M283 160L283 161L286 161L283 160z"/>
<path style="fill:#e75857; stroke:none;" d="M286 160L286 161L304 161L286 160z"/>
<path style="fill:#d53938; stroke:none;" d="M216 176L216 177L229 175L229 174L227 174L227 173L256 166L255 168C276.536 157.95 307.832 163.003 331 163L331 164L328 164L328 165L344 165L344 166L340 166L340 167L350 166L350 167L346 167L346 168L382 174L382 175L380 175L380 176L402 182L402 183L400 183L400 184L408 184L408 192L416 192L419 196L419 197C412.632 201.128 418.664 208.245 417.522 214.003C415.979 221.777 408.267 225.903 408 234C399.793 230.927 389.373 232.129 389 243C380.795 245.124 359.158 255.593 352 251C307.658 262.916 256.358 262.778 212 251L212 252L266 271L266 272C232.46 271.907 189.247 257.89 174 225L173 225C176.034 259.531 221.207 261.374 242 278L239 277L239 278L239 279C243.593 279.616 250.171 290.819 248 295L248 296C249.733 298.288 249.922 300.104 249.999 303.001C250.438 319.452 236.596 313.761 225 310.112C212.618 306.216 198.863 299.437 189.285 290.535C182.916 284.615 178.506 276.522 172 271L173 277L172 277L169 266L168 266C168 273.734 168.116 282.263 172.588 288.999C177.631 296.596 187.259 301.877 195 306.281C217.293 318.963 246.124 328.897 272 328L272 329L268 329L267 333L267 334L268 336C288.501 338.591 309.424 338.796 330 336.83C339.933 335.881 350.105 333.083 360 333L360 332L312 337L312 335L317 335L317 334L312 333L288 334L288 333L296 333L296 332L280 332L280 331C320.517 329.26 356.872 325.081 394.576 309.134C408.632 303.189 425.874 295.767 434 282L400 304L402 300L397 300L397 299L400 296L396 298L392 296L392 288L395 288L397 272L401 272L415 260.561L432 243L430 243C437.589 233.341 440.493 222.103 440 210L438 211L438 210C439.571 196.354 412.463 177.43 400 178C392.963 168.622 367.947 167.141 357 165.001C322.107 158.178 284.787 158.911 250 166.004C238.335 168.382 227.492 173.277 216 176z"/>
<path style="fill:#e75857; stroke:none;" d="M312 160L312 161L324 161L312 160z"/>
<path style="fill:#9a9a99; stroke:none;" d="M324 160L324 161L327 161L324 160M272.667 161.333L273.333 161.667L272.667 161.333z"/>
<path style="fill:#e75857; stroke:none;" d="M274 161L274 162L282 162L274 161M328 161L328 162L336 162L328 161z"/>
<path style="fill:#9a9a99; stroke:none;" d="M336.667 161.333L337.333 161.667L336.667 161.333M265.667 162.333L266.333 162.667L265.667 162.333z"/>
<path style="fill:#e75857; stroke:none;" d="M267 162L267 163L272 163L267 162M255 168L256 166L255 166L227 173L227 174L229 174L229 175C223.978 173.906 207.802 175.909 207 182C198.338 181.483 194.044 188.384 188 193L189 191C184.835 193.615 181.844 195.99 181 201L180 199L179 199C170.135 213.381 171.685 224.52 168 240L172 239L172 260L167 253L172 277L173 277L172 271C187.103 289.196 201.599 303.397 225 310.409C230.974 312.199 241.598 316.675 247.771 314.163C252.381 312.287 251.059 298.673 248 296L248 295C252.037 292.049 243.327 278.894 239 279L239 278L239 277L242 278C237.171 272.167 224.951 269.769 218 266.914C200.77 259.836 176.02 245.147 173 225L174 225C175.936 231.913 183.32 240.643 189 245L186 240L197 246L205 253L206 253L219 256.28L250 267L250 268L226 265L226 266C239.054 270.174 252.292 271.991 266 272L266 271L212 252L212 251C239.942 261.286 271.789 259.318 301 258.039C318.783 257.261 335.13 257.352 352 251L362 251.056L389 243C390.058 232.342 399.864 231.714 408 234C408.572 226.507 415.869 222.293 417.539 214.997C419.066 208.328 413.266 202.615 419 197L419 196L416 192L408 192L408 184L400 184L400 183L402 183L402 182C394.674 179.686 387.97 174.45 380 176L380 175L382 175L382 174L346 168L346 167L350 167L350 166L340 167L340 166L344 166L344 165L328 165L328 164L331 164C325.43 161.663 317.056 163.066 311 163.004C294.635 162.836 269.481 159.129 255 168M339 162L339 163L344 163L339 162z"/>
<path style="fill:#9a9a99; stroke:none;" d="M344.667 162.333L345.333 162.667L344.667 162.333M259 163L260 164L259 163z"/>
<path style="fill:#e75857; stroke:none;" d="M260 163L260 164L265 164L260 163M347 163L347 164L352 164L347 163z"/>
<path style="fill:#9a9a99; stroke:none;" d="M352 163L353 164L352 163z"/>
<path style="fill:#e75857; stroke:none;" d="M254 164L254 165L259 165L254 164z"/>
<path style="fill:#d53938; stroke:none;" d="M278.667 164.333L279.333 164.667L278.667 164.333z"/>
<path style="fill:#e75857; stroke:none;" d="M344 164L345 165L344 164M354 164L354 165L358 165L354 164z"/>
<path style="fill:#9a9a99; stroke:none;" d="M358.667 164.333L359.333 164.667L358.667 164.333M249 165L250 166L249 165z"/>
<path style="fill:#e75857; stroke:none;" d="M250 165L250 166L253 166L250 165z"/>
<path style="fill:#d53938; stroke:none;" d="M271 165L271 166L275 166L271 165z"/>
<path style="fill:#e75857; stroke:none;" d="M359 165L359 166L363 166L359 165z"/>
<path style="fill:#9a9a99; stroke:none;" d="M363 165L364 166L363 165M244 166L245 167L244 166z"/>
<path style="fill:#e75857; stroke:none;" d="M245 166L245 167L248 167L245 166z"/>
<path style="fill:#d53938; stroke:none;" d="M264.667 166.333L265.333 166.667L264.667 166.333M320.667 166.333L321.333 166.667L320.667 166.333M334.667 166.333L335.333 166.667L334.667 166.333z"/>
<path style="fill:#e75857; stroke:none;" d="M355 166L356 167L355 166M364 166L364 167L368 167L364 166z"/>
<path style="fill:#9a9a99; stroke:none;" d="M368 166L369 167L368 166M240 167L241 168L240 167z"/>
<path style="fill:#e75857; stroke:none;" d="M241 167L241 168L244 168L241 167z"/>
<path style="fill:#d53938; stroke:none;" d="M259 167L260 168L259 167z"/>
<path style="fill:#e75857; stroke:none;" d="M370.667 167.333L371.333 167.667L370.667 167.333z"/>
<path style="fill:#9a9a99; stroke:none;" d="M372 167L373 168L372 167M237 168L238 169L237 168z"/>
<path style="fill:#e75857; stroke:none;" d="M238.667 168.333L239.333 168.667L238.667 168.333M374.667 168.333L375.333 168.667L374.667 168.333z"/>
<path style="fill:#9a9a99; stroke:none;" d="M376.667 168.333L377.333 168.667L376.667 168.333z"/>
<path style="fill:#e75857; stroke:none;" d="M234.667 169.333L235.333 169.667L234.667 169.333M378.667 169.333L379.333 169.667L378.667 169.333z"/>
<path style="fill:#9a9a99; stroke:none;" d="M380.667 169.333L381.333 169.667L380.667 169.333M230 170L231 171L230 170z"/>
<path style="fill:#e75857; stroke:none;" d="M231 170L231 171L234 171L231 170M381 170L381 171L384 171L381 170z"/>
<path style="fill:#9a9a99; stroke:none;" d="M227 171L228 172L227 171z"/>
<path style="fill:#e75857; stroke:none;" d="M228.667 171.333L229.333 171.667L228.667 171.333M385.667 171.333L386.333 171.667L385.667 171.333z"/>
<path style="fill:#9a9a99; stroke:none;" d="M387 171L388 172L387 171z"/>
<path style="fill:#e75857; stroke:none;" d="M224 172L224 173L227 173L224 172M388 172L389 173L388 172z"/>
<path style="fill:#9a9a99; stroke:none;" d="M389.667 172.333L390.333 172.667L389.667 172.333M221 173L222 174L221 173z"/>
<path style="fill:#e75857; stroke:none;" d="M222.667 173.333L223.333 173.667L222.667 173.333z"/>
<path style="fill:#d53938; stroke:none;" d="M232.667 173.333L233.333 173.667L232.667 173.333M371.667 173.333L372.333 173.667L371.667 173.333z"/>
<path style="fill:#e75857; stroke:none;" d="M384 173L385 174L384 173M392 173L393 174L392 173z"/>
<path style="fill:#9a9a99; stroke:none;" d="M393 173L394 174L393 173z"/>
<path style="fill:#e75857; stroke:none;" d="M219 174L219 175L222 175L219 174z"/>
<path style="fill:#d53938; stroke:none;" d="M369 174L370 175L369 174M375 176L378 174L375 176z"/>
<path style="fill:#e75857; stroke:none;" d="M394.667 174.333L395.333 174.667L394.667 174.333z"/>
<path style="fill:#9a9a99; stroke:none;" d="M396 174L397 175L396 174z"/>
<path style="fill:#e75857; stroke:none;" d="M216 175L216 176L219 176L216 175M397.667 175.333L398.333 175.667L397.667 175.333z"/>
<path style="fill:#9a9a99; stroke:none;" d="M399 175L400 176L399 175z"/>
<path style="fill:#e75857; stroke:none;" d="M400.333 176.667L400.667 177.333L400.333 176.667z"/>
<path style="fill:#9a9a99; stroke:none;" d="M401 176L402 177L401 176z"/>
<path style="fill:#e75857; stroke:none;" d="M402 177L403 178L402 177z"/>
<path style="fill:#9a9a99; stroke:none;" d="M403 177L404 178L403 177M209 178L210 179L209 178z"/>
<path style="fill:#d53938; stroke:none;" d="M212 178L208 180L208 181L211 182C211 179.564 211.786 180.385 214 181L212 178M214.667 178.333L215.333 178.667L214.667 178.333z"/>
<path style="fill:#e75857; stroke:none;" d="M405 178L408 180L408 179L405 178z"/>
<path style="fill:#9a9a99; stroke:none;" d="M406 178L407 179L406 178M207 179L208 180L207 179z"/>
<path style="fill:#e75857; stroke:none;" d="M400.333 179.667L400.667 180.333L400.333 179.667z"/>
<path style="fill:#9a9a99; stroke:none;" d="M408 179L409 180L408 179M205 180L206 181L205 180z"/>
<path style="fill:#e75857; stroke:none;" d="M409 180L410 181L409 180z"/>
<path style="fill:#9a9a99; stroke:none;" d="M410 180L411 181L410 180M203 181L204 182L203 181z"/>
<path style="fill:#d53938; stroke:none;" d="M205.667 181.333L206.333 181.667L205.667 181.333M215 181L216 182L215 181z"/>
<path style="fill:#e75857; stroke:none;" d="M402.667 181.333L403.333 181.667L402.667 181.333M411 181L412 182L411 181z"/>
<path style="fill:#9a9a99; stroke:none;" d="M412 181L413 182L412 181M201 182L202 183L201 182z"/>
<path style="fill:#d53938; stroke:none;" d="M207 182L208 183L207 182z"/>
<path style="fill:#e75857; stroke:none;" d="M413 182L416 184L416 183L413 182z"/>
<path style="fill:#9a9a99; stroke:none;" d="M414 182L415 183L414 182M417 184L418 185L417 184M196 185L197 186L196 185z"/>
<path style="fill:#e75857; stroke:none;" d="M418 185L420 187L418 185z"/>
<path style="fill:#9a9a99; stroke:none;" d="M419 185L420 186L419 185z"/>
<path style="fill:#d53938; stroke:none;" d="M191 190L191 191L199 187L191 190z"/>
<path style="fill:#9a9a99; stroke:none;" d="M420 186L421 187L420 186M193 187L194 188L193 187M421 187L422 188L421 187z"/>
<path style="fill:#e75857; stroke:none;" d="M422 188L423 189L422 188z"/>
<path style="fill:#9a9a99; stroke:none;" d="M423 188L424 189L423 188M190 189L191 190L190 189M424 189L425 190L424 189M189 190L190 191L189 190z"/>
<path style="fill:#e75857; stroke:none;" d="M417.667 190.333L418.333 190.667L417.667 190.333M425 190L426 191L425 190z"/>
<path style="fill:#d53938; stroke:none;" d="M188 193L191 191L188 193z"/>
<path style="fill:#e75857; stroke:none;" d="M420 191L421 192L420 191M426 191L431 196L426 191z"/>
<path style="fill:#9a9a99; stroke:none;" d="M427 191L428 192L427 191M186 192L187 193L186 192M428 192L429 193L428 192M185 193L186 194L185 193z"/>
<path style="fill:#d53938; stroke:none;" d="M187 193L186 195L188 195L187 193z"/>
<path style="fill:#9a9a99; stroke:none;" d="M429 193L430 194L429 193M430 194L431 195L430 194M431 195L432 196L431 195z"/>
<path style="fill:#d53938; stroke:none;" d="M183 196L182 199L183 196z"/>
<path style="fill:#9a9a99; stroke:none;" d="M432 196L434 198L432 196z"/>
<path style="fill:#e75857; stroke:none;" d="M432 197L433 198L432 197z"/>
<path style="fill:#9a9a99; stroke:none;" d="M180 198L181 199L180 198z"/>
<path style="fill:#e75857; stroke:none;" d="M433 198L434 199L433 198z"/>
<path style="fill:#d53938; stroke:none;" d="M180 199L180 201L182 199L180 199z"/>
<path style="fill:#e75857; stroke:none;" d="M426 199L427 200L426 199z"/>
<path style="fill:#9a9a99; stroke:none;" d="M434 199L435 200L434 199M178 200L179 201L178 200M435 200L436 203L437 203L435 200z"/>
<path style="fill:#d53938; stroke:none;" d="M179 201L177 205L179 201z"/>
<path style="fill:#e75857; stroke:none;" d="M435 201L436 202L435 201z"/>
<path style="fill:#9a9a99; stroke:none;" d="M437 203L438 204L437 203M175 204L176 205L175 204z"/>
<path style="fill:#e75857; stroke:none;" d="M437 204L438 205L437 204z"/>
<path style="fill:#9a9a99; stroke:none;" d="M438 205L439 206L438 205z"/>
<path style="fill:#e75857; stroke:none;" d="M438 206L439 207L438 206z"/>
<path style="fill:#d53938; stroke:none;" d="M175 207L176 208L175 207z"/>
<path style="fill:#9a9a99; stroke:none;" d="M439 207C444.175 225.415 436.297 236.305 428 252L428 253L431 256C424.667 257.357 434.498 270.358 434 276C443.386 268.007 445.968 251.724 446 240C462.958 257.099 467.961 274.977 458 297C449.915 297.012 440.77 307.003 434 311.305C421.954 318.959 407.641 324.045 394 328L394 329L443 314L437 324L438 325C453.66 322.593 441.044 336.283 435 340L436 342C431.929 342.685 423.649 343.221 423 348L420 347L421 349L420 349L418 348L417 348L418 351L415 349L416 351L412 350L412 351L414 352L400 354L400 355L403 355L403 356L396 355L396 356L399 356L399 357L368 364L368 363L374 362L374 361L363 362L363 363L368 364L368 365L356 363L358 365L358 366L292 367L292 366L317 365L317 364L314 364L314 363L320 363L318 361L318 360L320 358C305.719 352.064 291.208 354 276 354C262.242 354 248.697 352.283 235 352L235 353L238 354L238 355L233 356L233 357L240 361L233 360L233 361L239 362L239 363L228 361L228 360L232 360L232 359L225 358L225 359L228 359L228 360L224 358L224 357L203 353L203 352L208 354L201 350L201 351L203 352L200 353C198.747 345.713 185.258 341.619 179 339L179 340L187 344L184 346L183 343L178 344L178 343L181 343L181 342L176 343L172 336L178 339L178 338C167.112 330.593 155.44 322.446 150 310C162.646 317.275 177.096 332.41 193 331C178.227 316.311 152.089 305.78 150 282L151 282C154.123 291.26 163.085 303.307 171 309L162 297C166.843 301.631 173.977 309.008 181 309L180 311L198 317L211 324.305L245 334L246 332L246 331C242.709 331.549 239.14 333.438 240 330C231.472 331.334 210.569 325.672 206 318L209 319L203 310L200 311L201 309L198 310L197 310C196.14 306.919 195.092 306.478 192 307C190.014 301.143 181.669 297.851 177.286 293.572C164.997 281.573 161.764 269.097 167 253L169 253L172 260L172 239C161.153 240.386 152.019 255.861 147.858 265C137.047 288.744 137.211 305.987 149.844 329.385C153.413 335.995 155.528 341.403 162 346L161 343L166 349L167 349L166 347L169 348L169 347L166 346L168 341L176 344L174 347C179.806 348.673 190.916 350.418 192 357L197 361L203 361L206 359L203 365L207 363L208 366L232 376L230 379L235 380L239 381L274 385.826L313 386L312 388C356.393 386.123 398.506 383.917 442 372.151C458.092 367.798 476.911 363.63 490.83 354.049C496.985 349.813 503.648 345.033 508.12 338.961C524.863 316.23 513.306 290.807 493 275.78C486.666 271.093 477.101 264.807 469 265L470 263L467 265C461.678 255.054 449.616 246.676 445.603 236.83C441.773 227.433 446.403 215.399 439 207z"/>
<path style="fill:#e75857; stroke:none;" d="M419 208L419 216L420 216L419 208M439.333 208.667L439.667 209.333L439.333 208.667z"/>
<path style="fill:#d53938; stroke:none;" d="M174 209L175 210L174 209z"/>
<path style="fill:#4c4241; stroke:none;" d="M438.333 209.667L438.667 210.333L438.333 209.667z"/>
<path style="fill:#9a9a99; stroke:none;" d="M172 210L173 211L172 210z"/>
<path style="fill:#4c4241; stroke:none;" d="M439 211L440 212L439 211z"/>
<path style="fill:#9a9a99; stroke:none;" d="M171 212L172 213L171 212z"/>
<path style="fill:#d53938; stroke:none;" d="M173.333 212.667L173.667 213.333L173.333 212.667z"/>
<path style="fill:#e75857; stroke:none;" d="M440 212L441 213L440 212z"/>
<path style="fill:#4c4241; stroke:none;" d="M440 214C439.909 224.975 435.388 233.706 430 243C438.983 238.61 443.857 223.191 440 214z"/>
<path style="fill:#9a9a99; stroke:none;" d="M170 215L171 216L170 215M169 219L169 222L170 222L169 219z"/>
<path style="fill:#e75857; stroke:none;" d="M441 219L441 222L442 222L441 219z"/>
<path style="fill:#9a9a99; stroke:none;" d="M169 224L170 225L169 224M168 227L168 239L169 239L168 227z"/>
<path style="fill:#e75857; stroke:none;" d="M440 227L441 228L440 227z"/>
<path style="fill:#d53938; stroke:none;" d="M439 230L440 231L439 230z"/>
<path style="fill:#9a9a99; stroke:none;" d="M172 231L173 232L172 231z"/>
<path style="fill:#e75857; stroke:none;" d="M439 231L440 232L439 231M438 233L439 234L438 233z"/>
<path style="fill:#4c4241; stroke:none;" d="M432.333 235.667L432.667 236.333L432.333 235.667z"/>
<path style="fill:#e75857; stroke:none;" d="M437 235L438 236L437 235M436 237L437 238L436 237M435 238L436 239L435 238z"/>
<path style="fill:#fcfcfb; stroke:none;" d="M186 240C192.634 249.348 203.579 255.652 214 259.988C217.416 261.41 223.033 265.069 226 262L245 267L245 266L210 253L210 254L215 256L215 257L186 240z"/>
<path style="fill:#e75857; stroke:none;" d="M434 240L432 244L434 240z"/>
<path style="fill:#4c4241; stroke:none;" d="M446 240C445.629 284.83 412.1 303.777 374 316.093C357.219 321.517 340.808 327.69 323 328.91C308.667 329.893 294.314 329.87 280 331L280 332L296 332L296 333L288 333L288 334L312 333L317 334L317 335L312 335L312 337L360 332L360 333L315 337.961L248 334L248 335L286 342.831L323 346L323 347C312.388 347.845 302.863 350.251 292 349.985C273.908 349.542 257.289 345.158 240 340.489C203.838 330.723 169.194 317.649 151 282L150 282C151.024 304.347 176.705 319.536 193 331C176.138 331.644 164.317 315.537 150 310C152.859 319.649 161.196 326.563 169 332.37C188.26 346.702 215.808 359.024 240 361C237.005 355.855 230.297 356.066 225 354.572C214.303 351.554 202.691 348.141 194 341C210.642 343.243 226.115 351.217 243 352.83C268.819 355.297 295.136 350.84 320 358L318 360L318 361L320 363L314 363L314 364L317 364L317 365L292 366L292 367C333.399 367 375.843 364.354 415 349.575C424.668 345.926 436.222 341.781 443.937 334.671C450.242 328.86 445.017 323.407 438 325L437 324L443 314L394 329L394 328C407.88 325.097 423.026 318.913 435 311.305C441.519 307.163 450.295 297.596 458 297C469.522 278.74 463.565 252.476 446 240z"/>
<path style="fill:#9a9a99; stroke:none;" d="M186 241L187 242L186 241M188 241L189 242L188 241z"/>
<path style="fill:#d53938; stroke:none;" d="M190 241L193 244L190 241z"/>
<path style="fill:#4c4241; stroke:none;" d="M166 242L160 249L166 247L167 247L166 242z"/>
<path style="fill:#9a9a99; stroke:none;" d="M187 242L188 243L187 242M189 242L190 243L189 242M188 243L189 244L188 243M190 243L191 244L190 243z"/>
<path style="fill:#4c4241; stroke:none;" d="M429 243L428 246L429 243z"/>
<path style="fill:#9a9a99; stroke:none;" d="M189 244L190 245L189 244z"/>
<path style="fill:#d53938; stroke:none;" d="M194 244L196 246L194 244z"/>
<path style="fill:#e75857; stroke:none;" d="M431 244L432 245L431 244z"/>
<path style="fill:#9a9a99; stroke:none;" d="M190 245L191 246L190 245M193 245L194 246L193 245z"/>
<path style="fill:#e75857; stroke:none;" d="M430 245L431 246L430 245M190.667 246.333L191.333 246.667L190.667 246.333z"/>
<path style="fill:#d53938; stroke:none;" d="M196 246L197 247L196 246z"/>
<path style="fill:#e75857; stroke:none;" d="M429 246L410.576 262.92L401 272L397 272L395 288L392 288L392 296L396 298L400 296L397 299L397 300L402 300L400 304C420.389 297.203 437.196 283.262 443 262L442 262L434 276C435.11 269.266 425.63 259.525 431 256L428 253L428 252L429 246M192 247L194 249L192 247z"/>
<path style="fill:#9a9a99; stroke:none;" d="M193 247L194 248L193 247M196 247L197 248L196 247z"/>
<path style="fill:#4c4241; stroke:none;" d="M423 247L426 249L426 248L423 247z"/>
<path style="fill:#e75857; stroke:none;" d="M194 249L195 250L194 249z"/>
<path style="fill:#9a9a99; stroke:none;" d="M195 249L196 250L195 249M199 249L200 250L199 249z"/>
<path style="fill:#4c4241; stroke:none;" d="M159 250L157 253L159 250z"/>
<path style="fill:#e75857; stroke:none;" d="M196 250L197 251L196 250z"/>
<path style="fill:#9a9a99; stroke:none;" d="M201 250L202 251L201 250M204.667 250.333L205.333 250.667L204.667 250.333z"/>
<path style="fill:#e75857; stroke:none;" d="M197 251L200 253L200 252L197 251z"/>
<path style="fill:#9a9a99; stroke:none;" d="M198 251L199 252L198 251M202 251L203 252L202 251M206 251L211 256L211 252L206 251M446 251L448.674 274L442 291L447 287C448.293 273.715 454.612 263.82 446 251M204 252L205 253L204 252z"/>
<path style="fill:#d53938; stroke:none;" d="M223 252L224 253L223 252z"/>
<path style="fill:#e75857; stroke:none;" d="M200 253L201 254L200 253z"/>
<path style="fill:#9a9a99; stroke:none;" d="M201 253L202 254L201 253M212 253L213 254L212 253z"/>
<path style="fill:#e75857; stroke:none;" d="M431 253L432 254L431 253z"/>
<path style="fill:#4c4241; stroke:none;" d="M166.333 254.667L166.667 255.333L166.333 254.667z"/>
<path style="fill:#d53938; stroke:none;" d="M167 254L167 258L168 258L167 254z"/>
<path style="fill:#e75857; stroke:none;" d="M202 254L203 255L202 254z"/>
<path style="fill:#9a9a99; stroke:none;" d="M213.667 254.333L214.333 254.667L213.667 254.333z"/>
<path style="fill:#e75857; stroke:none;" d="M203.667 255.333L204.333 255.667L203.667 255.333M211 255L212 256L211 255z"/>
<path style="fill:#9a9a99; stroke:none;" d="M212 255L215 257L215 256L212 255M217 255L218 256L217 255M426 255L427 256L426 255z"/>
<path style="fill:#e75857; stroke:none;" d="M444 255L445 256L444 255M205.667 256.333L206.333 256.667L205.667 256.333z"/>
<path style="fill:#9a9a99; stroke:none;" d="M218.667 256.333L219.333 256.667L218.667 256.333z"/>
<path style="fill:#d53938; stroke:none;" d="M246.667 256.333L247.333 256.667L246.667 256.333z"/>
<path style="fill:#e75857; stroke:none;" d="M443 256L443 261L444 261L443 256z"/>
<path style="fill:#4c4241; stroke:none;" d="M165 257C165.983 259.95 166.487 260.622 164 260L170 286L171 286C169.937 279.82 169.736 260.07 165 257z"/>
<path style="fill:#e75857; stroke:none;" d="M207 257L208 258L207 257z"/>
<path style="fill:#9a9a99; stroke:none;" d="M208 257L209 258L208 257M215 257L216 258L215 257M221 257L222 258L221 257z"/>
<path style="fill:#d53938; stroke:none;" d="M165 258L165 261L166 261L165 258z"/>
<path style="fill:#e75857; stroke:none;" d="M209.667 258.333L210.333 258.667L209.667 258.333z"/>
<path style="fill:#9a9a99; stroke:none;" d="M223.667 258.333L224.333 258.667L223.667 258.333z"/>
<path style="fill:#e75857; stroke:none;" d="M211.667 259.333L212.333 259.667L211.667 259.333z"/>
<path style="fill:#9a9a99; stroke:none;" d="M219 259L220 260L219 259M226.667 259.333L227.333 259.667L226.667 259.333z"/>
<path style="fill:#e75857; stroke:none;" d="M213 260L213 261L217 262L217 261L213 260z"/>
<path style="fill:#9a9a99; stroke:none;" d="M215 260L216 261L215 260M229 260L230 261L229 260z"/>
<path style="fill:#d53938; stroke:none;" d="M164 261L164 264L165 264L164 261z"/>
<path style="fill:#9a9a99; stroke:none;" d="M217 261L218 262L217 261M232 261L233 262L232 261z"/>
<path style="fill:#d53938; stroke:none;" d="M443 261L444 262L443 261z"/>
<path style="fill:#e75857; stroke:none;" d="M218 262L219 263L218 262z"/>
<path style="fill:#9a9a99; stroke:none;" d="M219.667 262.333L220.333 262.667L219.667 262.333M225 265L229 264L234 265C230.792 263.259 227.53 261.918 225 265M234.667 262.333L235.333 262.667L234.667 262.333z"/>
<path style="fill:#e75857; stroke:none;" d="M220.667 263.333L221.333 263.667L220.667 263.333z"/>
<path style="fill:#9a9a99; stroke:none;" d="M222 263L223 264L222 263M237.667 263.333L238.333 263.667L237.667 263.333z"/>
<path style="fill:#e75857; stroke:none;" d="M440 263L441 264L440 263z"/>
<path style="fill:#d53938; stroke:none;" d="M444 263L445 264L444 263z"/>
<path style="fill:#9a9a99; stroke:none;" d="M458 263L459 264L458 263z"/>
<path style="fill:#e75857; stroke:none;" d="M223.667 264.333L224.333 264.667L223.667 264.333z"/>
<path style="fill:#fcfcfb; stroke:none;" d="M227.667 264.333L228.333 264.667L227.667 264.333z"/>
<path style="fill:#9a9a99; stroke:none;" d="M240.667 264.333L241.333 264.667L240.667 264.333z"/>
<path style="fill:#d53938; stroke:none;" d="M442.333 264.667L442.667 265.333L442.333 264.667z"/>
<path style="fill:#9a9a99; stroke:none;" d="M235.667 265.333L236.333 265.667L235.667 265.333M242 265L242 266L245 266L242 265z"/>
<path style="fill:#4c4241; stroke:none;" d="M150 266L151 267L150 266z"/>
<path style="fill:#9a9a99; stroke:none;" d="M232 266L233 267L232 266M239.667 266.333L240.333 266.667L239.667 266.333M243 267L243 268L250 268L243 267M430 266L432 269L430 266z"/>
<path style="fill:#d53938; stroke:none;" d="M441 266L442 267L441 266M440 269L441 270L440 269z"/>
<path style="fill:#4c4241; stroke:none;" d="M149 271L150 272L149 271z"/>
<path style="fill:#9a9a99; stroke:none;" d="M458 271L459 272L458 271z"/>
<path style="fill:#4c4241; stroke:none;" d="M467 271L469 274L467 271z"/>
<path style="fill:#d53938; stroke:none;" d="M164.333 272.667L164.667 273.333L164.333 272.667M438.333 272.667L438.667 273.333L438.333 272.667z"/>
<path style="fill:#fcfcfb; stroke:none;" d="M465 273L465 276L466 276L465 273z"/>
<path style="fill:#d53938; stroke:none;" d="M437.333 275.667L437.667 276.333L437.333 275.667z"/>
<path style="fill:#9a9a99; stroke:none;" d="M452 275L453 276L452 275z"/>
<path style="fill:#4c4241; stroke:none;" d="M469 275L470 276L469 275z"/>
<path style="fill:#d53938; stroke:none;" d="M165 276L166 277L165 276M436 277L437 278L436 277M166.333 278.667L166.667 279.333L166.333 278.667M435.333 278.667L435.667 279.333L435.333 278.667z"/>
<path style="fill:#9a9a99; stroke:none;" d="M450 279L451 280L450 279z"/>
<path style="fill:#fcfcfb; stroke:none;" d="M465 279L466 280L465 279z"/>
<path style="fill:#4c4241; stroke:none;" d="M149 280L150 281L149 280z"/>
<path style="fill:#d53938; stroke:none;" d="M434 280L435 281L434 280z"/>
<path style="fill:#e75857; stroke:none;" d="M167 281L168 282L167 281M175 281L176 282L175 281z"/>
<path style="fill:#d53938; stroke:none;" d="M168 282L169 283L168 282z"/>
<path style="fill:#e75857; stroke:none;" d="M168 283L169 284L168 283M169 284L170 285L169 284z"/>
<path style="fill:#fcfcfb; stroke:none;" d="M464 284L462 294L463 294L464 284z"/>
<path style="fill:#4c4241; stroke:none;" d="M473 286C479.15 319.245 444.112 344.421 418 356.525C410.236 360.124 394.126 363.434 389 370L370 374.011L327 383L327 384L344 383L344 384L317 385L317 386C341.574 386 366.161 382.986 390 376.861C393.775 375.891 411.076 372.799 411 370L415 371L438 360L440 362L447 359L448 359C452.71 352.232 461.7 348.59 467.94 343.199C475.607 336.576 480.306 326.803 482.19 317C482.973 312.923 480.452 297.661 476 297L473 286z"/>
<path style="fill:#e75857; stroke:none;" d="M179 287L179 288C191.394 298.71 203.157 307.836 219 313L206 304.961L179 287z"/>
<path style="fill:#fcfcfb; stroke:none;" d="M149 288L150 292L151 292L149 288M157 288L160 291L157 288z"/>
<path style="fill:#9a9a99; stroke:none;" d="M440 291L436 296L436 297L440 291z"/>
<path style="fill:#fcfcfb; stroke:none;" d="M151 293L152 294L151 293z"/>
<path style="fill:#e75857; stroke:none;" d="M176 293L177 294L176 293z"/>
<path style="fill:#fcfcfb; stroke:none;" d="M461 295L460 297L461 295M153 296L154 297L153 296M164 296L165 297L164 296z"/>
<path style="fill:#e75857; stroke:none;" d="M180 296L181 297L180 296z"/>
<path style="fill:#fcfcfb; stroke:none;" d="M162 297C165.764 305.445 173.512 311.567 181 316.656C198.206 328.35 220.838 339.089 242 340L242 339L240 339L240 338L262 340L262 339L208 322.716L180 311L181 309L180 309L162 297z"/>
<path style="fill:#e75857; stroke:none;" d="M181 297L182 298L181 297z"/>
<path style="fill:#4c4241; stroke:none;" d="M456.333 297.667L456.667 298.333L456.333 297.667z"/>
<path style="fill:#fcfcfb; stroke:none;" d="M154 298L157 304L158 304L154 298z"/>
<path style="fill:#e75857; stroke:none;" d="M182 298L183 299L182 298M394 298L392 299L392 300L394 298z"/>
<path style="fill:#9a9a99; stroke:none;" d="M434 298L435 299L434 298z"/>
<path style="fill:#e75857; stroke:none;" d="M184 299L185 300L184 299z"/>
<path style="fill:#fcfcfb; stroke:none;" d="M459 299L460 300L459 299M153 300L155 303L153 300z"/>
<path style="fill:#e75857; stroke:none;" d="M185 300L186 301L185 300z"/>
<path style="fill:#9a9a99; stroke:none;" d="M477 300L477 304L478 304L477 300z"/>
<path style="fill:#fcfcfb; stroke:none;" d="M171 302L172 303L171 302z"/>
<path style="fill:#e75857; stroke:none;" d="M188 302L189 303L188 302M190 303L191 304L190 303z"/>
<path style="fill:#4c4241; stroke:none;" d="M173 305L174 306L173 305z"/>
<path style="fill:#fcfcfb; stroke:none;" d="M192 305L193 306L192 305z"/>
<path style="fill:#e75857; stroke:none;" d="M193 305L194 306L193 305z"/>
<path style="fill:#fcfcfb; stroke:none;" d="M160 306L161 307L160 306z"/>
<path style="fill:#e75857; stroke:none;" d="M192 306L193 307L192 306M195 306L196 307L195 306z"/>
<path style="fill:#fcfcfb; stroke:none;" d="M177 307L178 308L177 307z"/>
<path style="fill:#e75857; stroke:none;" d="M193 307L194 308L193 307M197 307L198 308L197 307z"/>
<path style="fill:#fcfcfb; stroke:none;" d="M160 308L160 310L162 308L160 308M197 308L198 309L197 308z"/>
<path style="fill:#e75857; stroke:none;" d="M197 309L198 310L197 309z"/>
<path style="fill:#fcfcfb; stroke:none;" d="M199 309L200 310L199 309M200.667 310.333L201.333 310.667L200.667 310.333M161.667 311.333L162.333 311.667L161.667 311.333M202 311L209 319L206 318C208.8 325.81 232.496 331.891 240 330C240.481 332.871 243.587 331.602 246 331L246 332L244 332L244 333L256 331L256 328L202 311z"/>
<path style="fill:#9a9a99; stroke:none;" d="M204 311L205 312L204 311M175 312L176 313L175 312M207 312L208 313L207 312M219 312L220 313L219 312z"/>
<path style="fill:#e75857; stroke:none;" d="M220 312C223.563 317.112 234.059 318.729 240 319L240 318L220 312z"/>
<path style="fill:#d53938; stroke:none;" d="M246.667 312.333L247.333 312.667L246.667 312.333z"/>
<path style="fill:#e75857; stroke:none;" d="M251 312L252 313L251 312z"/>
<path style="fill:#9a9a99; stroke:none;" d="M176 313L177 314L176 313z"/>
<path style="fill:#e75857; stroke:none;" d="M209 313L210 314L209 313z"/>
<path style="fill:#fcfcfb; stroke:none;" d="M165 314L166 315L165 314z"/>
<path style="fill:#9a9a99; stroke:none;" d="M177 314L178 315L177 314z"/>
<path style="fill:#e75857; stroke:none;" d="M193 314L193 315L197 315L193 314z"/>
<path style="fill:#9a9a99; stroke:none;" d="M211 314L212 315L211 314M179 315L180 316L179 315z"/>
<path style="fill:#e75857; stroke:none;" d="M214 315L215 316L214 315z"/>
<path style="fill:#fcfcfb; stroke:none;" d="M168 316L169 317L168 316z"/>
<path style="fill:#9a9a99; stroke:none;" d="M180 316L181 317L180 316z"/>
<path style="fill:#e75857; stroke:none;" d="M199 316L200 317L199 316z"/>
<path style="fill:#9a9a99; stroke:none;" d="M216 316L217 317L216 316M182 317L183 318L182 317z"/>
<path style="fill:#4c4241; stroke:none;" d="M197 317L198 318L197 317z"/>
<path style="fill:#e75857; stroke:none;" d="M219 317L220 318L219 317z"/>
<path style="fill:#9a9a99; stroke:none;" d="M183 318L184 319L183 318z"/>
<path style="fill:#e75857; stroke:none;" d="M222 318L223 319L222 318z"/>
<path style="fill:#fcfcfb; stroke:none;" d="M153 319L151 320L151 321L153 319z"/>
<path style="fill:#9a9a99; stroke:none;" d="M185 319L186 320L185 319z"/>
<path style="fill:#e75857; stroke:none;" d="M225 319L226 320L225 319M240 319L240 320L243 320L240 319z"/>
<path style="fill:#9a9a99; stroke:none;" d="M186 320L187 321L186 320z"/>
<path style="fill:#e75857; stroke:none;" d="M228 320L229 321L228 320M244 320L244 321L247 321L244 320z"/>
<path style="fill:#d53938; stroke:none;" d="M407 320L408 321L407 320z"/>
<path style="fill:#9a9a99; stroke:none;" d="M188 321L189 322L188 321M231 321L232 322L231 321z"/>
<path style="fill:#fcfcfb; stroke:none;" d="M150 322L151 323L150 322M155 322L156 323L155 322z"/>
<path style="fill:#9a9a99; stroke:none;" d="M190 322L191 323L190 322z"/>
<path style="fill:#e75857; stroke:none;" d="M235 322L236 323L235 322z"/>
<path style="fill:#9a9a99; stroke:none;" d="M238 323L239 324L238 323z"/>
<path style="fill:#e75857; stroke:none;" d="M239 323L240 324L239 323z"/>
<path style="fill:#fcfcfb; stroke:none;" d="M149.333 324.667L149.667 325.333L149.333 324.667M157 324L157 328L153 332L156 332L155 335L152 333L160 343L163 341L164 344L166 344L168 339L167 339L165 342L168 337L168 336L160 336L161 334L156 335L155 331L155 330L159 328L158 330L163 330L157 327L157 324z"/>
<path style="fill:#9a9a99; stroke:none;" d="M193 324L194 325L193 324M242 324L243 325L242 324M195 325L196 326L195 325M246.667 325.333L247.333 325.667L246.667 325.333M197 326L198 327L197 326M250.667 326.333L251.333 326.667L250.667 326.333z"/>
<path style="fill:#e75857; stroke:none;" d="M252 326L253 327L252 326z"/>
<path style="fill:#4c4241; stroke:none;" d="M255 326L256 327L255 326z"/>
<path style="fill:#fcfcfb; stroke:none;" d="M153 327L154 328L153 327z"/>
<path style="fill:#9a9a99; stroke:none;" d="M159 327L160 328L159 327M199 327L200 328L199 327M255 327L256 331L246 335L254 333L253 335L264 336L264 335L259 334L259 333L265 329L255 327z"/>
<path style="fill:#fcfcfb; stroke:none;" d="M151 328L153 330L151 328z"/>
<path style="fill:#9a9a99; stroke:none;" d="M201 328L202 329L201 328z"/>
<path style="fill:#e75857; stroke:none;" d="M264 328L265 329L264 328z"/>
<path style="fill:#4c4241; stroke:none;" d="M266 328L266 329L272 329L266 328z"/>
<path style="fill:#d53938; stroke:none;" d="M383 328L384 329L383 328z"/>
<path style="fill:#4c4241; stroke:none;" d="M150 329L151 330L150 329z"/>
<path style="fill:#9a9a99; stroke:none;" d="M204 329L205 330L204 329z"/>
<path style="fill:#e75857; stroke:none;" d="M265 329L259 333L259 334L267 334L267 333L268 329L265 329z"/>
<path style="fill:#4c4241; stroke:none;" d="M272 329L272 331L280 331L280 329L272 329z"/>
<path style="fill:#d53938; stroke:none;" d="M373 329L373 330L378 330L373 329z"/>
<path style="fill:#9a9a99; stroke:none;" d="M386 330L386 331L393 330L386 330z"/>
<path style="fill:#fcfcfb; stroke:none;" d="M164 330L164 334L167 333L169 337L172 336L164 330z"/>
<path style="fill:#9a9a99; stroke:none;" d="M206 330L207 331L206 330z"/>
<path style="fill:#d53938; stroke:none;" d="M368 330L368 331L371 331L368 330z"/>
<path style="fill:#9a9a99; stroke:none;" d="M154 331L155 332L154 331z"/>
<path style="fill:#fcfcfb; stroke:none;" d="M161 331L162 332L161 331z"/>
<path style="fill:#9a9a99; stroke:none;" d="M209 331L210 332L209 331M384 331L385 332L384 331z"/>
<path style="fill:#fcfcfb; stroke:none;" d="M159 332L160 333L159 332z"/>
<path style="fill:#9a9a99; stroke:none;" d="M211 332L212 333L211 332M379.667 332.333L380.333 332.667L379.667 332.333M200 333L201 334L200 333M214 333L215 334L214 333z"/>
<path style="fill:#4c4241; stroke:none;" d="M245 333L246 334L245 333z"/>
<path style="fill:#fcfcfb; stroke:none;" d="M250 333L250 334L254 334L250 333M447 333L436 340L436 341C440.126 339.777 445.786 337.428 447 333z"/>
<path style="fill:#4c4241; stroke:none;" d="M154 334L155 335L154 334z"/>
<path style="fill:#9a9a99; stroke:none;" d="M217 334L218 335L217 334z"/>
<path style="fill:#4c4241; stroke:none;" d="M155 335L156 336L155 335z"/>
<path style="fill:#9a9a99; stroke:none;" d="M158 335L159 336L158 335M220 335L221 336L220 335M251.667 335.333L252.333 335.667L251.667 335.333z"/>
<path style="fill:#4c4241; stroke:none;" d="M288 335L288 336L296 336L288 335z"/>
<path style="fill:#9a9a99; stroke:none;" d="M155 336L161 341L155 336M162.667 336.333L163.333 336.667L162.667 336.333z"/>
<path style="fill:#fcfcfb; stroke:none;" d="M172 336L176 343L181 342L181 343L178 343L178 344L183 343L184 346L187 344L172 336z"/>
<path style="fill:#9a9a99; stroke:none;" d="M223 336L224 337L223 336M254 336L254 337L258 337L254 336M159 337L159 338L162 338L159 337M164 337L165 338L164 337M226.667 337.333L227.333 337.667L226.667 337.333M258 337L258 338L262 339L262 340L240 338L240 339C241.96 339.653 242.554 340 240 340L240 341C268.664 348.821 293.729 350.783 323 347C317.654 341.991 307.876 344.078 301 343.996C286.136 343.819 272.538 338.187 258 337M162 338L163 339L162 338z"/>
<path style="fill:#fcfcfb; stroke:none;" d="M169 338L170 339L169 338z"/>
<path style="fill:#9a9a99; stroke:none;" d="M230.667 338.333L231.333 338.667L230.667 338.333M163 339L164 340L163 339M235.667 339.333L236.333 339.667L235.667 339.333z"/>
<path style="fill:#fcfcfb; stroke:none;" d="M171 340L173 342L173 340L171 340z"/>
<path style="fill:#9a9a99; stroke:none;" d="M176 340L177 341L176 340M458 340L459 341L458 340z"/>
<path style="fill:#fcfcfb; stroke:none;" d="M168 341L166 346L169 347L169 348L166 347C174.33 357.232 201.355 373.018 215 371C218.377 375.496 226.645 376.563 232 377L232 376C226.489 374.55 207.741 368.74 207 363L203 365L206 359L203 361L197 361L192 357C191.446 350.053 180.161 347.843 174 347L176 344L168 341z"/>
<path style="fill:#9a9a99; stroke:none;" d="M194 341C199.399 347.298 209.108 350.174 217 352L217 351L205 345L222 349L194 341M433 341L434 342L433 341z"/>
<path style="fill:#fcfcfb; stroke:none;" d="M432 342L432 343L436 342L432 342z"/>
<path style="fill:#9a9a99; stroke:none;" d="M456 342L444 352L444 353C448.833 351.103 454.722 347.271 456 342z"/>
<path style="fill:#fcfcfb; stroke:none;" d="M161 343L166 347L161 343z"/>
<path style="fill:#9a9a99; stroke:none;" d="M168 343L171 346L171 345L171 344L168 343z"/>
<path style="fill:#fcfcfb; stroke:none;" d="M431 343L432 344L431 343z"/>
<path style="fill:#4c4241; stroke:none;" d="M161 344L162 345L161 344z"/>
<path style="fill:#9a9a99; stroke:none;" d="M173 344L174 345L173 344z"/>
<path style="fill:#fcfcfb; stroke:none;" d="M429 344L424 348L430 345L429 344z"/>
<path style="fill:#4c4241; stroke:none;" d="M162 345L163 346L162 345z"/>
<path style="fill:#fcfcfb; stroke:none;" d="M186 348L190 347L186 350L186 351L193 348L192 351L192 352L199 352C196.718 347.979 189.4 343.09 186 348M205 345C209.726 352.153 229.97 357.208 238 355L238 354L205 345z"/>
<path style="fill:#4c4241; stroke:none;" d="M163 346L164 347L163 346z"/>
<path style="fill:#9a9a99; stroke:none;" d="M172 346L173 347L172 346z"/>
<path style="fill:#fcfcfb; stroke:none;" d="M175 346L176 347L175 346z"/>
<path style="fill:#4c4241; stroke:none;" d="M164 347L165 348L164 347z"/>
<path style="fill:#fcfcfb; stroke:none;" d="M421.667 347.333L422.333 347.667L421.667 347.333z"/>
<path style="fill:#4c4241; stroke:none;" d="M165 348L166 349L165 348z"/>
<path style="fill:#9a9a99; stroke:none;" d="M173 348L174 349L173 348z"/>
<path style="fill:#fcfcfb; stroke:none;" d="M184 348L185 349L184 348M419.667 348.333L420.333 348.667L419.667 348.333z"/>
<path style="fill:#4c4241; stroke:none;" d="M166 349L166 350L202 369L202 368L166 349z"/>
<path style="fill:#9a9a99; stroke:none;" d="M170 349L170 350L174 352L170 349M175 349L176 350L175 349M194.667 349.333L195.333 349.667L194.667 349.333M224 349L224 350L227 350L224 349z"/>
<path style="fill:#fcfcfb; stroke:none;" d="M416 349L418 351L418 349L416 349z"/>
<path style="fill:#9a9a99; stroke:none;" d="M167 350L168 351L167 350M169 350L170 351L169 350z"/>
<path style="fill:#fcfcfb; stroke:none;" d="M200 350L200 353L203 352L203 351L200 350z"/>
<path style="fill:#9a9a99; stroke:none;" d="M228.667 350.333L229.333 350.667L228.667 350.333z"/>
<path style="fill:#fcfcfb; stroke:none;" d="M414.667 350.333L415.333 350.667L414.667 350.333z"/>
<path style="fill:#9a9a99; stroke:none;" d="M454 350L452 351L452 352L454 350M170 351L171 352L170 351M232.667 351.333L233.333 351.667L232.667 351.333M409.667 351.333L410.333 351.667L409.667 351.333z"/>
<path style="fill:#fcfcfb; stroke:none;" d="M408 352L408 353L414 352L408 352z"/>
<path style="fill:#9a9a99; stroke:none;" d="M180 352L181 353L180 352M183 352L182 354L183 352z"/>
<path style="fill:#fcfcfb; stroke:none;" d="M203 352L203 353L222 358L203 352z"/>
<path style="fill:#9a9a99; stroke:none;" d="M218.667 352.333L219.333 352.667L218.667 352.333M171 353L172 354L171 353M173 353L174 354L173 353M176 353L177 354L176 353M209.667 353.333L210.333 353.667L209.667 353.333M221 353L221 354L224 354L221 353z"/>
<path style="fill:#fcfcfb; stroke:none;" d="M403 354L403 355L408 354L403 354z"/>
<path style="fill:#9a9a99; stroke:none;" d="M178 354L179 355L178 354M211 354L211 355L214 355L211 354M224 354L224 355L227 355L224 354M174 355L175 356L174 355M214 355L214 356L217 356L214 355M228 355L228 356L232 356L228 355z"/>
<path style="fill:#fcfcfb; stroke:none;" d="M399 355L399 356L403 356L399 355z"/>
<path style="fill:#9a9a99; stroke:none;" d="M178 356L179 357L178 356z"/>
<path style="fill:#fcfcfb; stroke:none;" d="M208 356L208 357L211 358L208 356z"/>
<path style="fill:#9a9a99; stroke:none;" d="M218.667 356.333L219.333 356.667L218.667 356.333M392 356L392 357L395 357L392 356z"/>
<path style="fill:#fcfcfb; stroke:none;" d="M368 363L368 364L399 357C391.72 354.396 375.341 360.514 368 363z"/>
<path style="fill:#9a9a99; stroke:none;" d="M447 356L448 357L447 356M177 357L178 358L177 357z"/>
<path style="fill:#fcfcfb; stroke:none;" d="M200 357L200 359L202 359L200 357z"/>
<path style="fill:#9a9a99; stroke:none;" d="M389.667 357.333L390.333 357.667L389.667 357.333M181 358L182 359L181 358z"/>
<path style="fill:#fcfcfb; stroke:none;" d="M215 358L217 360L215 358M222 358L222 359L228 360L222 358z"/>
<path style="fill:#9a9a99; stroke:none;" d="M384 358L384 359L387 359L384 358M438 358L440 360L438 358M183 359L184 360L183 359z"/>
<path style="fill:#fcfcfb; stroke:none;" d="M211.667 359.333L212.333 359.667L211.667 359.333M219.667 359.333L220.333 359.667L219.667 359.333z"/>
<path style="fill:#9a9a99; stroke:none;" d="M380 359L380 360L383 360L380 359M436 359L437 360L436 359M182 360L183 361L182 360M185 360L186 361L185 360M193 360L194 361L193 360z"/>
<path style="fill:#fcfcfb; stroke:none;" d="M228 360L228 361L239 363L228 360z"/>
<path style="fill:#9a9a99; stroke:none;" d="M375 360L375 361L379 361L375 360M184 361L185 362L184 361M434 361L430 362L430 363L435 362L434 361M186 362L187 363L186 362M189 362L190 363L189 362M198 362L198 363L201 363L198 362z"/>
<path style="fill:#fcfcfb; stroke:none;" d="M239 364L242 364L241 362L239 364M367 362L368 363L367 362z"/>
<path style="fill:#9a9a99; stroke:none;" d="M188 363L189 364L188 363M191 363L192 364L191 363z"/>
<path style="fill:#fcfcfb; stroke:none;" d="M362 363L362 364L368 365L362 363z"/>
<path style="fill:#9a9a99; stroke:none;" d="M190 364L191 365L190 364M193 364L194 365L193 364z"/>
<path style="fill:#fcfcfb; stroke:none;" d="M235 364L236 365L235 364M246 364L246 365L250 365L246 364z"/>
<path style="fill:#9a9a99; stroke:none;" d="M338 365L338 366L355 365L338 365z"/>
<path style="fill:#fcfcfb; stroke:none;" d="M336 366L336 367L358 366L336 366M358 364L358 365L362 366L362 365L358 364z"/>
<path style="fill:#9a9a99; stroke:none;" d="M424 366L424 367L430 365L424 366M195 365L196 366L195 365z"/>
<path style="fill:#fcfcfb; stroke:none;" d="M239 366L239 367L243 366L239 366M251 365L251 366L255 368L258 365L251 365M264 366L264 367L267 367L264 366z"/>
<path style="fill:#9a9a99; stroke:none;" d="M416 366L417 367L416 366M422 366L423 367L422 366M197 367L198 368L197 367M200 367L201 368L200 367z"/>
<path style="fill:#fcfcfb; stroke:none;" d="M269 367L269 368L275 368L269 367M324 367L324 368L336 368L324 367M352 367L353 368L352 367z"/>
<path style="fill:#9a9a99; stroke:none;" d="M202.333 368.667L202.667 369.333L202.333 368.667z"/>
<path style="fill:#fcfcfb; stroke:none;" d="M215 368L216 369L215 368M221.667 368.333L222.333 368.667L221.667 368.333M288 368L288 369L296 369L288 368M299 368L299 369L316 369L299 368z"/>
<path style="fill:#4c4241; stroke:none;" d="M203 369L203 370L216 374L216 373L203 369z"/>
<path style="fill:#9a9a99; stroke:none;" d="M205 369L206 370L205 369z"/>
<path style="fill:#fcfcfb; stroke:none;" d="M217 369L217 370L220 370L217 369z"/>
<path style="fill:#9a9a99; stroke:none;" d="M408 369L409 370L408 369M208 370L209 371L208 370z"/>
<path style="fill:#fcfcfb; stroke:none;" d="M223 370L224 371L223 370z"/>
<path style="fill:#9a9a99; stroke:none;" d="M404 370L405 371L404 370M207 371L208 372L207 371M211 371L212 372L211 371M214.333 371.667L214.667 372.333L214.333 371.667M210 372L211 373L210 372M213 373L214 374L213 373M216 373L216 375L218 373L216 373M221.667 373.333L222.333 373.667L221.667 373.333M394 373L395 374L394 373z"/>
<path style="fill:#4c4241; stroke:none;" d="M217 374L217 375L223 376L223 375L217 374z"/>
<path style="fill:#9a9a99; stroke:none;" d="M220 374L221 375L220 374M391 374L392 375L391 374M223.333 375.667L223.667 376.333L223.333 375.667M386.667 375.333L387.333 375.667L386.667 375.333z"/>
<path style="fill:#4c4241; stroke:none;" d="M224 376L224 377L227 377L224 376z"/>
<path style="fill:#9a9a99; stroke:none;" d="M227.333 376.667L227.667 377.333L227.333 376.667M382.667 376.333L383.333 376.667L382.667 376.333z"/>
<path style="fill:#4c4241; stroke:none;" d="M228 377L228 378L231 378L228 377z"/>
<path style="fill:#fcfcfb; stroke:none;" d="M232 377L232 378L235 378L232 377M236 377L237 378L236 377M240 377L241 378L240 377z"/>
<path style="fill:#9a9a99; stroke:none;" d="M377.667 377.333L378.333 377.667L377.667 377.333z"/>
<path style="fill:#4c4241; stroke:none;" d="M232 378L232 379L235 379L232 378z"/>
<path style="fill:#fcfcfb; stroke:none;" d="M237.667 378.333L238.333 378.667L237.667 378.333z"/>
<path style="fill:#9a9a99; stroke:none;" d="M372 378L372 379L375 379L372 378z"/>
<path style="fill:#4c4241; stroke:none;" d="M236 379L236 380L239 380L236 379z"/>
<path style="fill:#9a9a99; stroke:none;" d="M367 379L367 380L370 380L367 379z"/>
<path style="fill:#4c4241; stroke:none;" d="M240 380L240 381L243 381L240 380z"/>
<path style="fill:#9a9a99; stroke:none;" d="M344.667 380.333L345.333 380.667L344.667 380.333M360 380L360 381L364 381L360 380M353 381L353 382L358 382L353 381M344 382L344 383L352 383L344 382z"/>
<path style="fill:#4c4241; stroke:none;" d="M280 385L280 386L283 386L280 385M298 386L298 387L313 387L298 386z"/>
<path style="fill:#9a9a99; stroke:none;" d="M318 388L318 389L322 389L318 388z"/>
</svg>
