<?xml version="1.0" standalone="no"?>
<!DOCTYPE svg PUBLIC "-//W3C//DTD SVG 20010904//EN"
 "http://www.w3.org/TR/2001/REC-SVG-20010904/DTD/svg10.dtd">
<svg version="1.0" xmlns="http://www.w3.org/2000/svg"
 width="612.000000pt" height="448.000000pt" viewBox="0 0 612.000000 448.000000"
 preserveAspectRatio="xMidYMid meet">

<g transform="translate(0.000000,448.000000) scale(0.100000,-0.100000)"
fill="#000000" stroke="none">
<path d="M2865 2874 c-320 -27 -595 -97 -808 -206 -165 -84 -260 -167 -314
-272 -22 -43 -24 -59 -21 -125 2 -55 10 -89 28 -126 34 -67 158 -192 257 -258
45 -30 80 -57 77 -60 -3 -3 -1 -13 4 -24 6 -10 18 -38 28 -63 10 -25 23 -50
30 -55 6 -6 15 -46 19 -88 7 -74 6 -79 -14 -84 -29 -7 -26 -16 9 -31 31 -14
41 -42 15 -42 -8 0 -15 4 -15 10 0 5 -6 7 -12 5 -18 -7 -94 21 -77 28 8 3 3 6
-11 6 -31 1 -140 71 -203 130 -26 24 -69 77 -96 118 -29 44 -51 69 -54 61 -3
-7 -6 -1 -6 14 -1 15 -5 29 -10 32 -5 3 -12 54 -16 113 l-8 107 -52 -55 c-65
-71 -117 -175 -123 -249 -2 -30 -2 -53 1 -50 2 3 7 26 9 52 5 47 54 158 70
158 5 0 7 4 3 9 -3 5 -1 12 5 16 5 3 10 1 10 -5 0 -6 5 -8 11 -4 8 5 8 9 -1
14 -9 5 -9 9 -1 14 6 4 11 4 12 -1 0 -4 4 1 9 12 8 19 9 18 9 -4 1 -24 1 -24
16 -5 14 18 14 18 15 -5 0 -13 -8 -48 -17 -78 -14 -46 -15 -62 -5 -111 18 -85
55 -152 121 -216 141 -139 451 -278 746 -335 61 -12 120 -24 132 -26 15 -4 20
-10 16 -25 -3 -11 -9 -20 -14 -20 -5 0 -6 -7 -2 -16 5 -12 1 -15 -13 -11 -10
3 -48 8 -84 12 -64 5 -63 5 42 -23 59 -16 113 -34 120 -40 13 -10 90 -19 312
-38 85 -7 88 -24 4 -24 -26 0 -50 -5 -54 -11 -11 -18 -241 -2 -369 26 -247 54
-439 110 -565 165 -189 83 -351 208 -428 329 -19 31 -47 72 -62 91 -15 19 -32
49 -39 65 -10 28 -11 26 -6 -18 10 -102 91 -219 229 -333 50 -42 101 -84 112
-95 12 -10 27 -19 33 -19 6 0 11 -6 11 -14 0 -41 -230 75 -357 180 -40 32 -42
18 -7 -42 61 -105 252 -245 452 -333 141 -62 405 -141 470 -141 41 0 -61 45
-150 66 -150 36 -354 121 -335 140 2 2 48 -9 103 -25 230 -69 334 -89 510
-100 94 -6 209 -11 255 -11 83 0 156 -16 198 -42 33 -20 26 -38 -16 -39 -32 0
-35 -2 -18 -10 13 -6 -48 -8 -175 -6 -124 2 -175 1 -140 -4 30 -5 168 -11 305
-15 256 -6 390 2 665 42 286 41 583 140 763 254 75 47 97 72 90 101 -3 10 1
27 8 36 12 15 12 16 -4 10 -40 -15 -68 -19 -92 -13 l-25 6 35 52 c19 29 33 54
31 56 -8 7 -168 -43 -219 -70 -11 -5 -21 -7 -24 -5 -6 6 157 87 175 87 7 0 10
4 7 10 -3 6 1 7 9 4 9 -3 16 -2 16 4 0 6 19 25 43 43 23 18 36 26 30 19 -21
-23 -15 -35 7 -15 30 27 33 13 4 -19 -14 -15 -24 -29 -22 -32 6 -5 74 68 105
113 74 104 83 270 21 403 -19 41 -57 99 -83 129 l-49 53 -17 -102 c-12 -70
-27 -122 -50 -166 -31 -61 -49 -80 -49 -50 0 8 -11 17 -24 20 -15 4 -26 15
-28 28 -2 14 -12 24 -28 28 -17 4 -21 8 -12 14 6 4 12 16 12 26 0 10 7 26 16
35 15 15 14 15 -12 9 -27 -6 -28 -5 -10 8 12 10 16 20 11 28 -6 10 -4 12 9 7
14 -6 17 -3 12 10 -4 10 4 30 22 53 44 53 79 129 91 192 56 306 -319 546 -989
633 -122 16 -455 27 -555 19z m-1025 -546 c0 -5 -9 -8 -20 -8 -24 0 -17 -26
10 -33 10 -3 29 -25 40 -50 12 -25 28 -51 35 -57 8 -6 11 -19 8 -27 -4 -10 -2
-14 4 -10 6 4 31 -11 55 -34 32 -31 37 -39 21 -34 -13 3 -29 2 -38 -2 -27 -16
136 -109 300 -171 69 -26 251 -87 323 -107 12 -3 22 -11 22 -17 0 -7 -17 -8
-52 -3 -29 4 -80 8 -113 10 -132 5 -415 132 -530 237 -35 32 -74 77 -88 101
-14 23 -34 50 -45 61 -25 22 -36 66 -28 111 5 25 11 32 24 28 13 -3 22 4 30
23 12 26 13 26 27 8 8 -11 15 -22 15 -26z m145 -268 c3 -6 -1 -7 -9 -4 -18 7
-21 14 -7 14 6 0 13 -4 16 -10z m2514 -200 c-1 -17 -5 -11 -14 20 -7 25 -15
54 -19 65 -3 11 3 2 14 -20 11 -22 19 -51 19 -65z m-2 -132 c-3 -7 -5 -2 -5
12 0 14 2 19 5 13 2 -7 2 -19 0 -25z m-2549 -237 c75 -51 198 -112 296 -147
44 -15 75 -29 69 -31 -15 -5 -149 45 -238 89 -71 36 -195 115 -195 124 0 9 14
2 68 -35z"/>
<path d="M1904 2057 c21 -19 53 -42 70 -51 28 -16 27 -14 -9 18 -22 20 -39 41
-37 47 1 6 -2 8 -8 4 -5 -3 -20 -1 -32 5 -13 6 -7 -3 16 -23z"/>
<path d="M4320 1810 c0 -5 5 -10 11 -10 5 0 7 5 4 10 -3 6 -8 10 -11 10 -2 0
-4 -4 -4 -10z"/>
<path d="M4664 1780 c3 -8 10 -35 16 -59 8 -31 14 -40 20 -31 5 8 3 28 -6 49
-15 37 -40 70 -30 41z"/>
<path d="M4725 1558 c0 -87 -4 -124 -19 -163 -49 -127 -171 -261 -336 -368
-36 -23 -66 -45 -68 -49 -2 -5 -9 -8 -16 -8 -6 0 -45 -16 -86 -36 -91 -44
-298 -124 -360 -139 -8 -2 -42 -11 -75 -21 -33 -9 -85 -22 -115 -29 -30 -7
-75 -18 -100 -24 -62 -15 -199 -38 -300 -51 -177 -23 -184 -27 -55 -30 l120
-3 -185 -12 c-139 -9 -164 -12 -100 -13 185 -4 479 22 690 60 63 11 123 22
132 23 10 0 21 4 24 8 10 10 26 9 20 -2 -3 -5 11 -3 32 5 20 7 46 13 58 14 37
0 84 21 78 33 -4 8 -2 7 7 0 17 -16 43 -17 33 -1 -4 6 -3 8 4 4 10 -6 141 31
152 43 3 3 18 7 34 8 16 1 37 10 47 19 11 10 22 14 25 11 8 -8 151 64 228 115
69 47 144 119 205 200 32 43 47 76 63 141 20 81 20 88 4 120 -9 19 -16 40 -16
46 0 12 -62 103 -92 135 -10 11 -22 33 -26 48 -4 16 -7 -19 -7 -84z m-1152
-895 c-7 -2 -19 -2 -25 0 -7 3 -2 5 12 5 14 0 19 -2 13 -5z m-80 -10 c-7 -2
-19 -2 -25 0 -7 3 -2 5 12 5 14 0 19 -2 13 -5z m-85 -10 c-10 -2 -26 -2 -35 0
-10 3 -2 5 17 5 19 0 27 -2 18 -5z"/>
<path d="M1710 1446 c0 -2 8 -10 18 -17 15 -13 16 -12 3 4 -13 16 -21 21 -21
13z"/>
<path d="M1908 1338 c5 -5 16 -8 23 -6 8 3 3 7 -10 11 -17 4 -21 3 -13 -5z"/>
<path d="M4580 1302 c0 -6 -10 -12 -22 -14 -14 -2 -19 -6 -12 -10 13 -9 52 17
41 28 -4 4 -7 2 -7 -4z"/>
<path d="M4527 1255 c3 -9 -2 -22 -13 -30 -11 -8 -14 -15 -8 -15 17 0 47 37
39 49 -10 17 -25 13 -18 -4z"/>
<path d="M1500 1186 c0 -2 8 -10 18 -17 15 -13 16 -12 3 4 -13 16 -21 21 -21
13z"/>
<path d="M1530 1146 c0 -2 8 -10 18 -17 15 -13 16 -12 3 4 -13 16 -21 21 -21
13z"/>
<path d="M2448 1143 c7 -3 16 -2 19 1 4 3 -2 6 -13 5 -11 0 -14 -3 -6 -6z"/>
<path d="M1625 1022 c68 -76 246 -178 426 -245 104 -39 303 -97 328 -96 9 0
-39 15 -105 34 -281 78 -509 188 -644 309 l-35 31 30 -33z"/>
<path d="M2488 853 c7 -3 16 -2 19 1 4 3 -2 6 -13 5 -11 0 -14 -3 -6 -6z"/>
<path d="M2548 843 c6 -2 18 -2 25 0 6 3 1 5 -13 5 -14 0 -19 -2 -12 -5z"/>
<path d="M2408 673 c6 -2 18 -2 25 0 6 3 1 5 -13 5 -14 0 -19 -2 -12 -5z"/>
<path d="M2688 633 c6 -2 18 -2 25 0 6 3 1 5 -13 5 -14 0 -19 -2 -12 -5z"/>
<path d="M2807 623 c18 -2 50 -2 70 0 21 2 7 4 -32 4 -38 0 -55 -2 -38 -4z"/>
</g>
</svg>
